<?xml version="1.0" encoding="utf-8"?>
<!-- Generator: Adobe Illustrator 24.0.0, SVG Export Plug-In . SVG Version: 6.00 Build 0)  -->
<svg version="1.1" id="Слой_1" xmlns:svgjs="http://svgjs.com/svgjs"
	 xmlns="http://www.w3.org/2000/svg" xmlns:xlink="http://www.w3.org/1999/xlink" x="0px" y="0px" viewBox="0 0 512 512"
	 style="enable-background:new 0 0 512 512;" xml:space="preserve">
<style type="text/css">
	.st0{fill:#FFCE00;}
</style>
<path class="st0" d="M455,510.5H57c-30.7,0-55.5-24.8-55.5-55.5V57C1.5,26.3,26.3,1.5,57,1.5h398c30.7,0,55.5,24.8,55.5,55.5v398
	C510.5,485.7,485.7,510.5,455,510.5z"/>
<g>
	<path d="M413.5,316H376v-22.5c0-4.1-3.4-7.5-7.5-7.5h-90c-4.1,0-7.5,3.4-7.5,7.5V316h-75V203.5c0-4.1-3.4-7.5-7.5-7.5h-4.6
		l11.7-35.1c0.3-0.8,0.4-1.6,0.4-2.4v-30c0-4.1-3.4-7.5-7.5-7.5H151V83.5c0-4.1-3.4-7.5-7.5-7.5c-4.1,0-7.5,3.4-7.5,7.5V121H98.5
		c-4.1,0-7.5,3.4-7.5,7.5v30c0,0.8,0.1,1.6,0.4,2.4l11.7,35.1h-4.6c-4.1,0-7.5,3.4-7.5,7.5V316h-7.5c-4.1,0-7.5,3.4-7.5,7.5v105
		c0,4.1,3.4,7.5,7.5,7.5H331v-82.5c0-4.1,3.4-7.5,7.5-7.5h45c4.1,0,7.5,3.4,7.5,7.5V436h22.5c4.1,0,7.5-3.4,7.5-7.5v-105
		C421,319.4,417.6,316,413.5,316L413.5,316z M151,383.5c0,4.1-3.4,7.5-7.5,7.5h-30c-4.1,0-7.5-3.4-7.5-7.5v-30
		c0-4.1,3.4-7.5,7.5-7.5h30c4.1,0,7.5,3.4,7.5,7.5V383.5z M166,263.5c0,4.1-3.4,7.5-7.5,7.5h-30c-4.1,0-7.5-3.4-7.5-7.5v-30
		c0-4.1,3.4-7.5,7.5-7.5h30c4.1,0,7.5,3.4,7.5,7.5L166,263.5L166,263.5z M158.5,166h-30c-4.1,0-7.5-3.4-7.5-7.5s3.4-7.5,7.5-7.5h30
		c4.1,0,7.5,3.4,7.5,7.5S162.6,166,158.5,166z M226,383.5c0,4.1-3.4,7.5-7.5,7.5h-30c-4.1,0-7.5-3.4-7.5-7.5v-30
		c0-4.1,3.4-7.5,7.5-7.5h30c4.1,0,7.5,3.4,7.5,7.5L226,383.5L226,383.5z M301,383.5c0,4.1-3.4,7.5-7.5,7.5h-30
		c-4.1,0-7.5-3.4-7.5-7.5v-30c0-4.1,3.4-7.5,7.5-7.5h30c4.1,0,7.5,3.4,7.5,7.5V383.5z"/>
	<path d="M430.3,142.8c-12.3-8.4-25.4-9.4-38.2-3.2l-42.5,20l-1.3,0.8l-26.3-13.8c-11-7.3-23.6-11.2-36.6-11.2h0l-22.2,0.6
		c-3.2,0.1-6,2.2-6.9,5.2c-1,3,0.1,6.4,2.7,8.3l46.7,35L269,203.6c-4.5-0.4-17.7-3.6-24.2-5.3c-8.5-2.1-9.8-2.4-11.3-2.4h-15
		c-3.2,0-6,2-7.1,5c-1.1,3-0.1,6.3,2.3,8.3c6.7,5.5,41.1,32.8,60.1,32.8c3.2,0,6.1-0.7,8.1-1.9l148.6-75.6c3.5-2.4,5.5-6.5,5.5-10.9
		C436,149.3,433.9,145.3,430.3,142.8L430.3,142.8z"/>
</g>
</svg>
