<?xml version="1.0"?>
<svg xmlns="http://www.w3.org/2000/svg" xmlns:xlink="http://www.w3.org/1999/xlink" xmlns:svgjs="http://svgjs.com/svgjs" version="1.1" width="512" height="512" x="0" y="0" viewBox="0 0 24 24" style="enable-background:new 0 0 512 512" xml:space="preserve" class=""><g><path xmlns="http://www.w3.org/2000/svg" d="m23.25 15.42v-.93c0-.64-.31-1.24-.83-1.61l-8.95-6.26v-4.4c0-.81-.66-1.47-1.47-1.47s-1.47.66-1.47 1.47v4.4l-8.95 6.26c-.52.37-.83.97-.83 1.61v.93l9.78-3.91v7.34l-3.45 2.16c-.29.17-.46.49-.46.83v1.41l5.38-1.96 5.38 1.96v-1.41c0-.34-.17-.66-.46-.83l-3.45-2.16v-7.34z" fill="#00ffce" data-original="#607d8b" style="" class=""/><path xmlns="http://www.w3.org/2000/svg" d="m17.38 23.984c-.084 0-.169-.015-.251-.044l-5.129-1.866-5.129 1.865c-.226.082-.476.048-.672-.088-.196-.137-.313-.362-.313-.601v-1.415c0-.594.301-1.137.805-1.451l3.108-1.943v-5.847l-8.776 3.511c-.226.089-.483.063-.684-.074-.202-.136-.323-.364-.323-.607v-.938c0-.876.429-1.701 1.147-2.204l8.635-6.044v-4.021c0-1.214.988-2.201 2.201-2.201s2.201.987 2.201 2.201v4.021l8.635 6.044c.718.503 1.147 1.327 1.147 2.204v.938c0 .244-.121.471-.323.607-.201.137-.458.163-.684.074l-8.776-3.511v5.847l3.108 1.943c.503.314.805.857.805 1.451v1.415c0 .239-.117.464-.313.601-.123.087-.27.133-.419.133zm-5.38-3.424c.085 0 .17.015.251.044l4.396 1.599v-.367c0-.084-.043-.162-.115-.207l-3.454-2.159c-.214-.134-.345-.369-.345-.622v-7.337c0-.244.121-.471.323-.607.201-.137.457-.165.684-.074l8.768 3.507c-.042-.341-.227-.652-.513-.852l-8.948-6.264c-.196-.137-.313-.362-.313-.601v-4.403c0-.404-.329-.733-.733-.733s-.733.329-.733.733v4.403c0 .239-.117.464-.313.601l-8.948 6.264c-.286.2-.47.511-.513.852l8.768-3.507c.225-.091.482-.063.684.074.202.136.323.364.323.607v7.337c0 .253-.13.488-.345.622l-3.453 2.159c-.072.045-.115.123-.115.207v.367l4.396-1.599c.078-.029.163-.044.248-.044z" fill="#000000" data-original="#000000" style="" class=""/></g></svg>
